:SAMPLES-PER-SECOND 30
:FULLY-SPECIFIED
:DEGREES
34
root  90.6967 39.3127 1.12866 -137.056 -86.3095 136.088
RightUpLeg  -0.328238 -6.70814 -2.53234
RightLeg  5.5995 4.4404 -0.233567
RightFoot  -5.2212 0.0736972 -2.03722
RightToes  -1.16417e-010 0 -3.6325e-017
Spine  4.13315 1.16163 -2.03539
Spine1  -0.091641 0.889055 1.74033
HEad  -20.8098 -14.2953 -0.17142
LeftShoulder1  -0.710983 5.41544 -31.0322
LeftArm  3.30401 11.387 -43.6609
LeftForeArm  25.5001 -17.2295 -5.83107
LeftHand  -0.0988114 9.18841 -1.41347
RightShoulder  -1.15338 -6.79571 28.5237
RightArm  17.9137 -3.06336 48.1039
RightForeArm  17.1035 13.555 6.3641
RightHand  -0.025678 2.96936 -0.58467
LeftUpLeg  0.366965 4.30051 -2.03245
LeftLeg  3.10252 4.35695 0.25826
LeftFoot  -2.78272 -0.207502 2.87623
LeftToes  3.13772e-010 -3.14513e-011 3.96022e-013
35
root  90.6859 39.3156 1.10033 -137.157 -86.2768 136.142
RightUpLeg  -0.233652 -6.74346 -2.54437
RightLeg  5.55288 4.48239 -0.183288
RightFoot  -5.21927 0.0766378 -2.09146
RightToes  -1.16417e-010 0 -3.6325e-017
Spine  4.28463 1.13479 -1.84016
Spine1  -0.111418 0.89979 1.5123
HEad  -21.2428 -14.1431 0.171751
LeftShoulder1  -0.661182 5.28204 -31.0226
LeftArm  3.61466 11.5383 -43.4761
LeftForeArm  24.953 -17.4047 -5.77766
LeftHand  -0.11353 9.9985 -1.39362
RightShoulder  -1.14741 -6.78979 28.4035
RightArm  17.8627 -3.08045 48.258
RightForeArm  17.0061 13.4606 6.40666
RightHand  -0.0174809 3.6536 -0.476835
LeftUpLeg  0.425153 4.38174 -1.98527
LeftLeg  3.12421 4.34671 0.215114
LeftFoot  -2.73091 -0.208769 2.9005
LeftToes  3.13772e-010 -3.14513e-011 3.96022e-013
36
root  90.6903 39.3213 1.0917 -136.222 -86.2115 135.388
RightUpLeg  -0.49548 -6.76577 -2.60505
RightLeg  5.66078 4.5287 -0.170202
RightFoot  -5.1904 0.0800353 -2.15256
RightToes  -1.16417e-010 0 -3.6325e-017
Spine  4.8386 1.14577 -1.84678
Spine1  -1.01409 0.902815 1.55875
HEad  -21.2227 -14.5242 -0.11715
LeftShoulder1  -0.732133 5.4634 -31.205
LeftArm  4.77391 11.8037 -43.2806
LeftForeArm  24.8517 -17.6906 -5.74796
LeftHand  -0.073425 9.39192 -0.647305
RightShoulder  -1.16821 -6.83715 28.5365
RightArm  18.6959 -3.30122 47.8132
RightForeArm  16.8624 13.7736 6.41993
RightHand  -0.0228939 3.36121 -0.556155
LeftUpLeg  0.215091 4.31246 -2.0703
LeftLeg  3.1458 4.42833 0.214418
LeftFoot  -2.68975 -0.197809 2.73464
LeftToes  3.13772e-010 -3.14513e-011 3.96022e-013
37
root  90.6841 39.3275 1.07853 -134.67 -86.2496 133.745
RightUpLeg  -0.439487 -6.89611 -2.69437
RightLeg  5.8029 4.55644 -0.0809648
RightFoot  -5.20235 0.0752607 -2.08638
RightToes  -1.16417e-010 0 -3.6325e-017
Spine  4.91926 1.10249 -1.80992
Spine1  -0.834946 0.856576 1.58408
HEad  -21.3595 -14.2201 0.0783623
LeftShoulder1  -0.703778 5.39482 -31.0562
LeftArm  4.97533 11.7181 -43.5595
LeftForeArm  24.6979 -17.6371 -5.81284
LeftHand  -0.0548216 10.244 0.0437201
RightShoulder  -1.14821 -6.78144 28.5158
RightArm  18.5965 -3.26731 47.739
RightForeArm  16.8664 13.7975 6.38669
RightHand  -0.043059 2.44191 -0.828712
LeftUpLeg  0.500565 4.32233 -2.07938
LeftLeg  2.75842 4.33306 0.15322
LeftFoot  -2.55996 -0.200524 2.78162
LeftToes  3.13772e-010 -3.14513e-011 3.96022e-013
38
root  90.6665 39.3253 1.06631 -131.993 -86.3758 131.167
RightUpLeg  -0.467867 -7.05729 -2.77418
RightLeg  5.76053 4.48977 0.0632757
RightFoot  -5.21958 0.0839704 -2.23003
RightToes  -1.16417e-010 0 -3.6325e-017
Spine  4.64377 0.933025 -1.55206
Spine1  -0.553296 0.730509 1.35428
HEad  -21.5951 -13.9198 0.0096008
LeftShoulder1  -0.635173 5.21568 -30.9523
LeftArm  4.28677 11.8082 -43.6247
LeftForeArm  24.5396 -17.45 -5.85306
LeftHand  -0.0451019 10.5239 0.243784
RightShoulder  -1.11184 -6.69223 28.3494
RightArm  17.813 -3.21262 47.9008
RightForeArm  17.1413 13.2935 6.45846
RightHand  -0.0565648 3.03597 -1.00898
LeftUpLeg  0.449927 4.19698 -2.15336
LeftLeg  2.6664 4.22835 0.23962
LeftFoot  -2.54242 -0.207302 2.89189
LeftToes  3.13772e-010 -3.14513e-011 3.96022e-013
39
root  90.6721 39.3238 1.05825 -128.41 -86.4428 127.561
RightUpLeg  -0.447792 -7.16843 -2.89995
RightLeg  5.80656 4.38375 0.093538
RightFoot  -5.27419 0.0786165 -2.15496
RightToes  -1.16417e-010 0 -3.6325e-017
Spine  4.83919 0.773267 -1.6079
Spine1  -0.562923 0.558939 1.40369
HEad  -21.6693 -13.976 -0.0764709
LeftShoulder1  -0.729643 5.46647 -31.0141
LeftArm  4.06017 11.5561 -43.7228
LeftForeArm  24.0242 -17.2089 -5.98675
LeftHand  -0.0150777 11.203 0.907981
RightShoulder  -1.1673 -6.84191 28.4589
RightArm  17.8734 -2.84222 47.9214
RightForeArm  17.9013 13.1659 6.50468
RightHand  -0.0350359 2.8068 -0.716023
LeftUpLeg  0.448019 4.0983 -2.26566
LeftLeg  2.65279 4.144 0.260474
LeftFoot  -2.46256 -0.206915 2.89063
LeftToes  3.13772e-010 -3.14513e-011 3.96022e-013
40
root  90.6589 39.3224 1.03733 -125.081 -86.5012 124.305
RightUpLeg  -0.415838 -7.23378 -2.96365
RightLeg  5.67868 4.27522 0.103548
RightFoot  -5.30285 0.0822884 -2.2206
RightToes  -1.16417e-010 0 -3.6325e-017
Spine  5.21753 0.650809 -1.7882
Spine1  -1.16752 0.396916 1.60476
HEad  -21.8783 -13.5549 -0.189362
LeftShoulder1  -0.746392 5.50365 -31.1561
LeftArm  4.71322 11.9686 -43.4277
LeftForeArm  24.157 -17.6114 -5.80931
LeftHand  -0.0568403 9.87395 -0.189582
RightShoulder  -1.15277 -6.79471 28.5157
RightArm  18.0538 -3.08367 47.6556
RightForeArm  17.9455 13.323 6.46227
RightHand  -0.0234468 2.08811 -0.549076
LeftUpLeg  0.396359 4.07509 -2.29833
LeftLeg  2.57871 3.96745 0.214842
LeftFoot  -2.37379 -0.202432 2.82557
LeftToes  3.13772e-010 -3.14513e-011 3.96022e-013
41
root  90.6561 39.3222 1.0224 -124.478 -86.477 123.639
RightUpLeg  -0.363676 -7.24056 -2.98077
RightLeg  5.72844 4.2371 0.0903999
RightFoot  -5.35796 0.0829969 -2.24053
RightToes  -1.16417e-010 0 -3.6325e-017
Spine  5.37422 0.655581 -1.57438
Spine1  -1.17289 0.445666 1.3692
HEad  -21.5607 -13.9688 -0.180447
LeftShoulder1  -0.651764 5.26311 -30.8946
LeftArm  4.41625 12.1658 -43.5721
LeftForeArm  25.1454 -17.5914 -5.7546
LeftHand  -0.053437 7.03867 -0.781068
RightShoulder  -1.131 -6.73958 28.4353
RightArm  17.5602 -3.07217 47.5955
RightForeArm  17.5682 12.9854 6.51037
RightHand  -0.000430576 2.52797 -0.210398
LeftUpLeg  0.469386 4.09015 -2.30721
LeftLeg  2.59581 4.02385 0.195824
LeftFoot  -2.42974 -0.19787 2.75921
LeftToes  3.13772e-010 -3.14513e-011 3.96022e-013
